<?xml version="1.0" encoding="utf-8"?>
<svg viewBox="0 0 500 500" xmlns="http://www.w3.org/2000/svg">
  <path d="M 250.266 1.521 C 113.309 1.521 2.266 112.604 2.266 249.521 C 2.266 386.518 113.309 497.521 250.266 497.521 C 387.223 497.521 498.266 386.518 498.266 249.521 C 498.266 112.604 387.223 1.521 250.266 1.521 Z M 250.266 111.521 C 273.462 111.521 292.266 130.325 292.266 153.521 C 292.266 176.717 273.462 195.521 250.266 195.521 C 227.07 195.521 208.266 176.717 208.266 153.521 C 208.266 130.325 227.07 111.521 250.266 111.521 Z M 306.266 365.521 C 306.266 372.148 300.893 377.521 294.266 377.521 L 206.266 377.521 C 199.639 377.521 194.266 372.148 194.266 365.521 L 194.266 341.521 C 194.266 334.894 199.639 329.521 206.266 329.521 L 218.266 329.521 L 218.266 265.521 L 206.266 265.521 C 199.639 265.521 194.266 260.148 194.266 253.521 L 194.266 229.521 C 194.266 222.894 199.639 217.521 206.266 217.521 L 270.266 217.521 C 276.893 217.521 282.266 222.894 282.266 229.521 L 282.266 329.521 L 294.266 329.521 C 300.893 329.521 306.266 334.894 306.266 341.521 L 306.266 365.521 Z" style="fill: rgb(44, 29, 146);"/>
</svg>