<?xml version="1.0" encoding="utf-8"?>
<svg viewBox="0 0 500 500" xmlns="http://www.w3.org/2000/svg">
  <path d="M 481.227 249.095 C 481.227 386.092 370.184 497.095 233.227 497.095 C 96.27 497.095 -14.773 386.092 -14.773 249.095 C -14.773 112.178 96.27 1.095 233.227 1.095 C 370.184 1.095 481.227 112.178 481.227 249.095 Z M 239.882 83.095 C 185.385 83.095 150.627 106.052 123.333 146.853 C 119.797 152.139 120.98 159.268 126.048 163.111 L 160.747 189.421 C 165.952 193.368 173.368 192.429 177.412 187.299 C 195.276 164.641 207.525 151.502 234.715 151.502 C 255.144 151.502 280.413 164.65 280.413 184.46 C 280.413 199.436 268.05 207.127 247.879 218.436 C 224.355 231.623 193.227 248.036 193.227 289.095 L 193.227 293.095 C 193.227 299.722 198.6 305.095 205.227 305.095 L 261.227 305.095 C 267.854 305.095 273.227 299.722 273.227 293.095 L 273.227 291.762 C 273.227 263.3 356.413 262.115 356.413 185.095 C 356.413 127.093 296.248 83.095 239.882 83.095 Z M 233.227 331.095 C 207.862 331.095 187.227 351.73 187.227 377.095 C 187.227 402.459 207.862 423.095 233.227 423.095 C 258.592 423.095 279.227 402.459 279.227 377.095 C 279.227 351.73 258.592 331.095 233.227 331.095 Z" style="fill: rgb(56, 122, 188);"/>
</svg>